<svg xmlns="http://www.w3.org/2000/svg" xmlns:xlink="http://www.w3.org/1999/xlink" width="25" height="25"><defs><linearGradient id="a"><stop offset="0" stop-color="#24f3d2"/><stop offset=".394" stop-color="#0674f0"/><stop offset=".507" stop-color="#6961b5"/><stop offset=".813" stop-color="#f34660"/><stop offset="1" stop-color="#ee078d"/></linearGradient><linearGradient id="b" x1="868.253" x2="937.656" y1="521.354" y2="588.736" gradientTransform="translate(-695.63 618.327) scale(.80097)" gradientUnits="userSpaceOnUse" xlink:href="#a"/></defs><g fill="#fff" transform="translate(4.5 -1031.358)"><rect width="25" height="25" x="-4.5" y="1031.358" fill="url(#b)" rx="5.283" ry="5.283"/><path d="M5 6v13h3.594v-.563c-.02-2.47 1.927-4.416 4.375-4.437H13c2.42 0 4.385 2.012 4.406 4.469V19H21V6H5zm1 1h14v11h-1.625a5.505 5.505 0 0 0-3.531-4.656C15.534 12.794 16 11.948 16 11c0-1.65-1.35-3-3-3s-3 1.35-3 3c0 .946.436 1.793 1.125 2.344A5.389 5.389 0 0 0 7.594 18H6V7zm7 2c1.11 0 2 .89 2 2 0 1.102-.87 1.986-1.969 2h-.062A2.005 2.005 0 0 1 11 11c0-1.11.89-2 2-2z" color="#000" font-family="sans-serif" font-weight="400" overflow="visible" transform="translate(-4.5 1031.358)" style="line-height:normal;text-indent:0;text-align:start;text-decoration-line:none;text-decoration-style:solid;text-decoration-color:#000;text-transform:none;block-progression:tb;isolation:auto;mix-blend-mode:normal"/></g></svg>