<svg xmlns="http://www.w3.org/2000/svg" xmlns:xlink="http://www.w3.org/1999/xlink" viewBox="0 0 64 64"><defs><linearGradient id="a" x1="6.335" x2="58.808" y1="64.948" y2="5.63" gradientUnits="userSpaceOnUse"><stop offset="0" stop-color="#fff200"/><stop offset="1" stop-color="#cd118c"/></linearGradient><linearGradient id="b" x1="-10.894" x2="41.579" y1="49.707" y2="-9.611" xlink:href="#a"/><linearGradient id="c" x1="-8.909" x2="43.564" y1="51.463" y2="-7.855" xlink:href="#a"/><linearGradient id="d" x1="-6.924" x2="45.549" y1="53.219" y2="-6.099" xlink:href="#a"/><linearGradient id="e" x1="-4.163" x2="48.311" y1="55.662" y2="-3.656" xlink:href="#a"/><linearGradient id="f" x1="-2.177" x2="50.296" y1="57.418" y2="-1.9" xlink:href="#a"/><linearGradient id="g" x1="-.192" x2="52.281" y1="59.174" y2="-.144" xlink:href="#a"/><linearGradient id="h" x1="-1.185" x2="51.289" y1="58.296" y2="-1.022" xlink:href="#a"/><linearGradient id="i" x1="17.889" x2="70.363" y1="75.169" y2="15.851" xlink:href="#a"/><linearGradient id="j" x1="11.88" x2="64.353" y1="69.853" y2="10.535" xlink:href="#a"/></defs><g data-name="book store-building-shop-bookshop"><path fill="url(#a)" d="M61,11H49V6a1,1,0,0,0-1-1H45V3a1,1,0,0,0-1-1H36a4.994,4.994,0,0,0-4,2.03A4.994,4.994,0,0,0,28,2H20a1,1,0,0,0-1,1V5H16a1,1,0,0,0-1,1v5H3a1,1,0,0,0-1,1v5a1,1,0,0,0,1,1V61a1,1,0,0,0,1,1H60a1,1,0,0,0,1-1V18a1,1,0,0,0,1-1V12A1,1,0,0,0,61,11ZM33,7a3.009,3.009,0,0,1,3-3h7V20H33ZM21,4h7a3.009,3.009,0,0,1,3,3V20H21ZM17,7h2V21a1,1,0,0,0,1,1H44a1,1,0,0,0,1-1V7h2V24H17ZM4,13H15v3H4ZM38,60H26V42H38Zm21,0H40V41a1,1,0,0,0-1-1H25a1,1,0,0,0-1,1V60H5V30H59Zm0-32H5V18H15v7a1,1,0,0,0,1,1H48a1,1,0,0,0,1-1V18H59Zm1-12H49V13H60Z"/><rect width="6" height="2" x="23" y="7" fill="url(#b)"/><rect width="6" height="2" x="23" y="11" fill="url(#c)"/><rect width="6" height="2" x="23" y="15" fill="url(#d)"/><rect width="6" height="2" x="35" y="7" fill="url(#e)"/><rect width="6" height="2" x="35" y="11" fill="url(#f)"/><rect width="6" height="2" x="35" y="15" fill="url(#g)"/><path fill="url(#h)" d="M11,46h8a1,1,0,0,0,1-1V35a1,1,0,0,0-1-1H11a1,1,0,0,0-1,1V45A1,1,0,0,0,11,46Zm1-10h6v8H12Z"/><path fill="url(#i)" d="M45,46h8a1,1,0,0,0,1-1V35a1,1,0,0,0-1-1H45a1,1,0,0,0-1,1V45A1,1,0,0,0,45,46Zm1-10h6v8H46Z"/><rect width="2" height="3" x="28" y="49" fill="url(#j)"/></g></svg>