<svg xmlns="http://www.w3.org/2000/svg" viewBox="0 0 64 64"><path fill="#5aaae7" d="M61 11v46a4 4 0 0 1-4 4H7a4 4 0 0 1-4-4V11Z"/><path fill="#ff5023" d="M61 7v4H3V7a4 4 0 0 1 4-4h50a4 4 0 0 1 4 4Z"/><path fill="#ffd422" d="M55 51v4H45v-4h10z"/><path fill="#ffa733" d="M55 34v4h-6v-4h6z"/><path fill="#ffd422" d="M55 17v4H45v-4h10z"/><path fill="#3d9ae2" d="m39.79 41.89-1.5-.75L36 40v-2.54A3.98 3.98 0 0 0 38 34v-3a4 4 0 1 0-8 0v3a3.98 3.98 0 0 0 2 3.46V40l-2.29 1.14-1.5.75A4.02 4.02 0 0 0 26 45.47V47h16v-1.53a4.02 4.02 0 0 0-2.21-3.58Z"/><path fill="#00ccb3" d="M40 43.47V45H24v-1.53a4.02 4.02 0 0 1 2.21-3.58l1.5-.75L29 42l3-2 3 2 1.29-2.86 1.5.75A4.02 4.02 0 0 1 40 43.47Z"/><path fill="#00b39d" d="M36.29 39.14 35 42l-3-2 2-2 2.29 1.14zM32 40l-3 2-1.29-2.86L30 38l2 2z"/><path fill="#ffd422" d="M19 53v2H9v-4h10v2zM19 19v2H9v-4h10v2z"/><path fill="#ffa733" d="M15 36v2H9v-4h6v2z"/><path fill="#ffc477" d="M34 35v3l-2 2-2-2v-3h4z"/><path fill="#ffb655" d="M34 35v1.46a3.974 3.974 0 0 1-4 0V35Z"/><path fill="#ffc477" d="M36 31v1a4 4 0 0 1-8 0v-1h.51a5.993 5.993 0 0 0 4.25-1.76L33 29l.45.89A1.989 1.989 0 0 0 35.24 31Z"/><path fill="#57565c" d="M36 29v2h-.76a1.989 1.989 0 0 1-1.79-1.11L33 29l-.24.24A5.993 5.993 0 0 1 28.51 31H28v-2a4 4 0 0 1 8 0Z"/><path d="M57 2H7a5 5 0 0 0-5 5v50a5 5 0 0 0 5 5h50a5 5 0 0 0 5-5V7a5 5 0 0 0-5-5Zm3 55a3.009 3.009 0 0 1-3 3H7a3.009 3.009 0 0 1-3-3V12h56Zm0-47H4V7a3.009 3.009 0 0 1 3-3h50a3.009 3.009 0 0 1 3 3Z"/><path d="M8 6h2v2H8zM12 6h2v2h-2zM16 6h2v2h-2zM38.24 39 35 37.38v-1.41A4.952 4.952 0 0 0 37 32v-3a5 5 0 0 0-10 0v3a4.952 4.952 0 0 0 2 3.97v1.41L25.76 39A4.979 4.979 0 0 0 23 43.47V45a1 1 0 0 0 1 1h16a1 1 0 0 0 1-1v-1.53A4.979 4.979 0 0 0 38.24 39zM29 29a3 3 0 0 1 6 0v.97a.988.988 0 0 1-.66-.52l-.45-.9a1 1 0 0 0-.73-.54 1.042 1.042 0 0 0-.87.28l-.24.25A4.979 4.979 0 0 1 29 29.95zm0 2.96a6.92 6.92 0 0 0 3.7-1.35 2.968 2.968 0 0 0 2.3 1.36V32a3 3 0 0 1-6 0zm5.98 7.65-.41.9-1-.67.63-.62zM33 36.9v.69l-1 1-1-1v-.69a5.05 5.05 0 0 0 2 0zm-2.57 2.94-1 .67-.41-.9.78-.39zM39 44H25v-.53a2.988 2.988 0 0 1 1.66-2.68l.57-.29.86 1.91a.985.985 0 0 0 .63.55.9.9 0 0 0 .28.04.967.967 0 0 0 .55-.17L32 41.2l2.45 1.63A.967.967 0 0 0 35 43a.9.9 0 0 0 .28-.04.985.985 0 0 0 .63-.55l.86-1.91.57.29A2.988 2.988 0 0 1 39 43.47zm16-28H45a1 1 0 0 0-1 1v1h-3a1 1 0 0 0-.707.293l-4 4 1.414 1.414L41.414 20H44v1a1 1 0 0 0 1 1h10a1 1 0 0 0 1-1v-4a1 1 0 0 0-1-1zm-1 4h-8v-2h8zm1 30H45a1 1 0 0 0-1 1v1h-2.586l-3.707-3.707-1.414 1.414 4 4A1 1 0 0 0 41 54h3v1a1 1 0 0 0 1 1h10a1 1 0 0 0 1-1v-4a1 1 0 0 0-1-1zm-1 4h-8v-2h8zm1-21h-6a1 1 0 0 0-1 1v1h-5v2h5v1a1 1 0 0 0 1 1h6a1 1 0 0 0 1-1v-4a1 1 0 0 0-1-1zm-1 4h-4v-2h4zM44 24h2v2h-2zM48 24h8v2h-8zM44 28h12v2H44zM48 41h8v2h-8zM48 45h4v2h-4zM54 45h2v2h-2zM9 22h10a1 1 0 0 0 1-1v-1h2.586l3.707 3.707 1.414-1.414-4-4A1 1 0 0 0 23 18h-3v-1a1 1 0 0 0-1-1H9a1 1 0 0 0-1 1v4a1 1 0 0 0 1 1zm1-4h8v2h-8zm12.586 34H20v-1a1 1 0 0 0-1-1H9a1 1 0 0 0-1 1v4a1 1 0 0 0 1 1h10a1 1 0 0 0 1-1v-1h3a1 1 0 0 0 .707-.293l4-4-1.414-1.414zM18 54h-8v-2h8zM9 39h6a1 1 0 0 0 1-1v-1h5v-2h-5v-1a1 1 0 0 0-1-1H9a1 1 0 0 0-1 1v4a1 1 0 0 0 1 1zm1-4h4v2h-4zM18 24h2v2h-2zM8 24h8v2H8zM8 28h12v2H8zM8 41h8v2H8zM12 45h4v2h-4zM8 45h2v2H8z"/></svg>