<svg xmlns="http://www.w3.org/2000/svg" data-name="Layer 1" viewBox="0 0 24 24"><line x1="3.7" x2=".67" y1="13.45" y2="10.49" fill="#fff"/><line x1="13.87" x2="10.84" y1="23.37" y2="20.41" fill="#fff"/><line x1="3.7" x2=".67" y1="13.45" y2="10.49" fill="#fff"/><line x1="13.87" x2="10.84" y1="23.37" y2="20.41" fill="#fff"/><line x1="3.7" x2=".67" y1="13.45" y2="10.49" fill="#fff"/><line x1="13.87" x2="10.84" y1="23.37" y2="20.41" fill="#fff"/><line x1="6.81" x2="3.71" y1="13.2" y2="13.45" fill="#fff"/><polyline fill="#fff" points="10.84 20.41 10.85 20.41 11.02 17.32"/><polyline fill="#fff" points="11.02 17.32 10.85 20.41 10.84 20.41"/><line x1="19.67" x2="16.22" y1="15.78" y2="14.58" fill="#fff"/><line x1="16.22" x2="19.67" y1="14.58" y2="15.78" fill="#fff"/><line x1="17.99" x2="15.23" y1="5.95" y2="8.78" fill="#fff"/><line x1="9.41" x2="8.13" y1="7.94" y2="4.52" fill="#fff"/><line x1="17.99" x2="15.23" y1="5.95" y2="8.78" fill="#fff"/><line x1="9.41" x2="8.13" y1="7.94" y2="4.52" fill="#fff"/><line x1="3.71" x2="6.81" y1="13.45" y2="13.2" fill="#fff"/><circle cx="12.07" cy="12.02" r="11.5" fill="#fff"/><polyline fill="#8b8891" points="10.85 20.41 10.84 20.41 7.08 22.39"/><polygon fill="#8b8891" points="16.21 14.59 11.01 17.32 6.8 13.21 9.4 7.95 15.22 8.79 16.21 14.59"/><polyline fill="#8b8891" points="8.12 4.53 8.12 4.51 10 .72"/><path fill="#8b8891" d="M23.43 13.78a11.46 11.46 0 0 1-3 6.18h0l-.72-4.17h0l3.75-2zM22.18 6.57L18 6h0l-.72-4.18h0a11.55 11.55 0 0 1 4.92 4.81zM8.12 4.52L10 .72A11.32 11.32 0 0 0 3.93 3.91l4.2.62M1.82 17.26A11.45 11.45 0 0 1 .57 12a11.61 11.61 0 0 1 .1-1.53h0l3 3h0l-1.88 3.8zM10.84 20.41l3 3a11.59 11.59 0 0 1-1.81.14 11.33 11.33 0 0 1-5-1.14l3.76-2"/><line x1="3.7" x2=".67" y1="13.45" y2="10.49" fill="#3c3b41"/><line x1="13.87" x2="10.84" y1="23.37" y2="20.41" fill="#3c3b41"/><line x1="3.7" x2=".67" y1="13.45" y2="10.49" fill="#3c3b41"/><line x1="13.87" x2="10.84" y1="23.37" y2="20.41" fill="#3c3b41"/><line x1="3.7" x2=".67" y1="13.45" y2="10.49" fill="#3c3b41"/><line x1="13.87" x2="10.84" y1="23.37" y2="20.41" fill="#3c3b41"/><path d="M23.09,16.75l0-.08a11.9,11.9,0,0,0,.66-2.11c0-.1,0-.2.06-.3s.06-.27.08-.4a.45.45,0,0,0,0-.09,11.68,11.68,0,0,0-1.28-7.4s0,0,0,0c-.19-.35-.4-.68-.61-1l0,0q-.32-.47-.67-.9h0A11.92,11.92,0,0,0,18.8,2.1l-.07,0q-.41-.28-.85-.52l-.16-.09-.22-.12-.08,0A11.77,11.77,0,0,0,9.2.39L8.84.48,8.32.63q-.43.14-.85.31L7.39,1c-.35.15-.69.31-1,.49l0,0c-.31.17-.61.35-.9.55l-.12.08q-.41.28-.8.6l-.09.07c-.28.23-.55.47-.81.73v0A12,12,0,0,0,.2,10.35a.48.48,0,0,0,0,.08c0,.05,0,.11,0,.16a11.19,11.19,0,0,0,0,2.75c0,.17.05.34.08.51s.08.52.14.77.1.39.15.58.13.45.2.67.13.38.21.57.19.44.29.66.1.25.17.38l0,0a12.06,12.06,0,0,0,5.43,5.29h0L7,22.9c.26.12.53.23.8.34l.46.17.7.2.54.14c.24.05.49.09.74.12l.51.08a12.06,12.06,0,0,0,1.28.07c.37,0,.74,0,1.11-.06l.33,0,.45-.05.08,0a12,12,0,0,0,6.67-3.51l.05,0a12,12,0,0,0,1.83-2.51l.06-.11Q22.89,17.22,23.09,16.75Zm-.61-1.23c-.07.2-.14.4-.22.6l-.17.4c-.09.21-.19.41-.3.61l-.2.35c-.12.2-.23.4-.36.59l-.23.33-.31.41-.48-2.77,2.5-1.31c0,.1,0,.2-.08.3S22.54,15.36,22.49,15.52Zm.47-2-3.35,1.76-3-1L15.76,9l2.4-2.47L21.85,7A10.66,10.66,0,0,1,23,13.48ZM12.44,23h-.62l-.52,0-.6-.06-.54-.08-.55-.11-.54-.14-.56-.18-.24-.09L10.75,21l2,2ZM11.1,16.7,7.41,13.1,9.69,8.49l5.1.74.87,5.08Zm-4.62-4-2.59.21L1.21,10.32A11,11,0,0,1,4.12,4.44L7.76,5l1.1,2.94ZM1.63,15.48l-.08-.24c-.08-.27-.15-.55-.21-.83,0-.07,0-.14-.05-.21-.06-.29-.1-.58-.13-.87,0-.07,0-.14,0-.21,0-.36-.06-.73-.06-1.1,0-.14,0-.28,0-.43l2,2L1.85,16.08C1.77,15.88,1.7,15.69,1.63,15.48Zm5.06-13,.15-.09c.19-.11.4-.19.6-.29l.44-.2L8.3,1.7c.24-.09.48-.17.73-.24l.06,0L7.83,4,5,3.56A11,11,0,0,1,6.69,2.44Zm11.44.42L18.4,3c.22.15.43.31.64.48l.11.09a11.09,11.09,0,0,1,2.07,2.31l-2.8-.41-.48-2.77Zm-1.31-.74.63,3.67L15,8.25,9.77,7.49,8.67,4.55l1.67-3.37a10.64,10.64,0,0,1,6.48.95ZM2.39,17.25,4,13.93l2.59-.21,3.89,3.79-.14,2.58L7.65,21.52l-.56.3A11.07,11.07,0,0,1,2.39,17.25ZM14,22.84c-.36-.38-1.11-1.11-2.66-2.62l.14-2.59,4.75-2.5,3,1,.63,3.63A11,11,0,0,1,14,22.84Z"/></svg>