<svg xmlns="http://www.w3.org/2000/svg" width="32" height="32"><path fill="#2b4255" fill-rule="evenodd" d="M.033 24.005 13.447 7.882l8.53 10.235.054 5.888z"/><path fill="#e9eded" fill-rule="evenodd" d="m9.43 12.71 4.017-4.828 3.952 4.742-1.992.967-1.992-.924-1.993.967z"/><path fill="#4bbfeb" d="M9.146 2.294a1.509 1.509 0 0 0-1.22.624.929.929 0 0 0-.521-.16.929.929 0 0 0-.929.929.929.929 0 0 0 .01.124.58.58 0 0 0-.357-.124.58.58 0 0 0-.57.464h-.01a.926.926 0 0 0-.93.928c0 .515.415.93.93.93h4.642a.927.927 0 0 0 .398-1.766 1.509 1.509 0 0 0 .066-.44 1.509 1.509 0 0 0-1.509-1.51z"/><path fill="#34485c" fill-rule="evenodd" d="m8.683 30.019 14.186-17.01 9.164 10.823v6.187z"/><path fill="#576d7e" fill-rule="evenodd" d="m2.869 30.019 10-12.042 10 12.042z"/><path fill="#e9eded" d="m-524.164 1229.362-3.273 3.928.458.44 1.94-1.42 1.95 1.398 1.526-1.252z" color="#000" overflow="visible" style="isolation:auto;mix-blend-mode:normal" transform="translate(537.033 -1211.385)"/><path fill="#4bbfeb" d="M28.146 7.294a1.509 1.509 0 0 0-1.22.624.929.929 0 0 0-.521-.16.929.929 0 0 0-.929.929.929.929 0 0 0 .01.124.58.58 0 0 0-.358-.124.58.58 0 0 0-.568.464h-.012a.926.926 0 0 0-.928.928c0 .515.414.93.928.93h4.643a.927.927 0 0 0 .398-1.766 1.509 1.509 0 0 0 .066-.44 1.509 1.509 0 0 0-1.509-1.51z"/><path fill="none" stroke="#576d7e" d="M18.869 4.508h5m1 0h1m1 0h1m-24 4h1m1 0h1m1 0h1"/><path fill="#e9eded" fill-rule="evenodd" d="m18.62 18.114 4.249-5.106 4.18 4.93-2.107 1.108-2.107-.977-2.107 1.022z"/></svg>