<svg xmlns="http://www.w3.org/2000/svg" xmlns:xlink="http://www.w3.org/1999/xlink" viewBox="0 0 64 64"><defs><linearGradient id="c" x1="4" x2="60" y1="43" y2="43" gradientUnits="userSpaceOnUse"><stop offset="0" stop-color="#54a5ff"/><stop offset="1" stop-color="#8ad3fe"/></linearGradient><linearGradient id="a" x1="30" x2="34" y1="43" y2="43" gradientUnits="userSpaceOnUse"><stop offset="0" stop-color="#d3e6f5"/><stop offset="1" stop-color="#f0f7fc"/></linearGradient><linearGradient id="d" x1="32" x2="32" y1="38" y2="4" xlink:href="#a"/><linearGradient id="b" x1="10" x2="14" y1="20" y2="20" gradientUnits="userSpaceOnUse"><stop offset="0" stop-color="#fe9661"/><stop offset="1" stop-color="#ffb369"/></linearGradient><linearGradient id="e" x1="23" x2="27" y1="29" y2="29" xlink:href="#b"/><linearGradient id="f" x1="35" x2="39" y1="14" y2="14" xlink:href="#b"/><linearGradient id="g" x1="50" x2="54" y1="25" y2="25" xlink:href="#b"/></defs><path fill="url(#c)" d="M60 38v4a6 6 0 0 1-6 6H10a6 6 0 0 1-6-6v-4Z"/><path fill="#4795ea" d="M38.17 48H25.83l-4.12 12h20.58l-4.12-12z"/><path fill="#0668cb" d="M44 60H20a1 1 0 0 1 0-2h24a1 1 0 0 1 0 2Z"/><path fill="url(#a)" d="M33 44h-2a1 1 0 0 1 0-2h2a1 1 0 0 1 0 2Z"/><path fill="url(#d)" d="M60 10v28H4V10a6 6 0 0 1 6-6h44a6 6 0 0 1 6 6Z"/><path fill="#eb7f58" d="M26.25 28.44a1 1 0 0 1-.62-.22 1 1 0 0 1-.16-1.4L35 14.94a1 1 0 0 1 1.56 1.24L27 28.06a1 1 0 0 1-.75.38zm-2.89.42a1 1 0 0 1-.57-.18L13.07 22a1 1 0 0 1 1.14-1.64L23.93 27a1 1 0 0 1 .25 1.39 1 1 0 0 1-.82.47zm27.03-4.04a1 1 0 0 1-.59-.19L38 16a1 1 0 1 1 1.18-1.62L51 23a1 1 0 0 1-.59 1.81z"/><circle cx="12" cy="20" r="2" fill="url(#b)"/><circle cx="25" cy="29" r="2" fill="url(#e)"/><circle cx="37" cy="14" r="2" fill="url(#f)"/><circle cx="52" cy="25" r="2" fill="url(#g)"/></svg>