<svg xmlns="http://www.w3.org/2000/svg" xmlns:xlink="http://www.w3.org/1999/xlink" width="25" height="25"><defs><linearGradient id="a"><stop offset="0" stop-color="#16ff6a"/><stop offset="1" stop-color="#0090a5"/></linearGradient><linearGradient id="b" x1="1073.403" x2="1097.116" y1="516.451" y2="544.308" gradientTransform="translate(-860.857 619.02) scale(.80097)" gradientUnits="userSpaceOnUse" xlink:href="#a"/></defs><g fill="#fff" transform="translate(4.674 -1032.052)"><rect width="25" height="25" x="-4.674" y="1032.052" fill="url(#b)" rx="5.283" ry="5.283"/><path d="M7.469 5c-.823 0-1.5.678-1.5 1.5v12c0 .822.677 1.5 1.5 1.5H20V5H7.469zm0 1H7.5c.284 0 .469.216.469.5v12c0 .27-.174.48-.438.5H7.47a.488.488 0 0 1-.5-.5v-12c0-.286.214-.5.5-.5zm1.406 0H19v13H8.875c.055-.155.094-.327.094-.5v-12c0-.176-.037-.342-.094-.5zm4.531.75L11.22 8a2.493 2.493 0 0 0-.906 3.406l2.5 4.344c.686 1.195 2.242 1.596 3.437.906l2.156-1.25-1.5-2.594-1.281.75c-.31.179-.392.106-.5.032-.108-.074-.156-.188-.156-.188h-.031l-1.5-2.656s-.081-.142-.094-.281c-.014-.14-.055-.193.219-.344l1.343-.781-.75-1.313-.75-1.281zm-.375 1.375.25.406.25.438-.469.281a1.377 1.377 0 0 0-.718 1.313c.039.408.219.718.219.718l1.5 2.594s.157.296.5.531c.342.235.945.367 1.53.031l.438-.25.5.876-1.281.75a1.505 1.505 0 0 1-2.063-.563l-2.5-4.344c-.42-.727-.195-1.611.532-2.031l1.312-.75z" color="#000" font-family="sans-serif" font-weight="400" overflow="visible" transform="translate(-4.674 1032.052)" style="text-indent:0;text-align:start;line-height:normal;text-transform:none;block-progression:tb"/></g></svg>