<svg xmlns="http://www.w3.org/2000/svg" xmlns:xlink="http://www.w3.org/1999/xlink" width="25" height="25"><defs><linearGradient id="a"><stop offset="0" stop-color="#24f7bc"/><stop offset="1" stop-color="#24c4fc"/></linearGradient><linearGradient id="b" x1="949.87" x2="974.39" y1="518.014" y2="544.657" gradientTransform="translate(-762.149 619.02) scale(.80097)" gradientUnits="userSpaceOnUse" xlink:href="#a"/></defs><g fill="#fff" transform="translate(4.674 -1032.052)"><rect width="25" height="25" x="-4.674" y="1032.052" fill="url(#b)" rx="5.283" ry="5.283"/><path d="m7.594 5.344-.282.937-.906 3.032 4.188.03-1.125-1.5a5.99 5.99 0 0 1 4.781-.562 6.024 6.024 0 0 1 3.906 3.688l.938-.344a7.006 7.006 0 0 0-4.532-4.313 7.047 7.047 0 0 0-3.218-.187 6.95 6.95 0 0 0-2.469.906L7.594 5.344zm-1.75 5.562-.063.156v.063l-.187.844.968.187.188-.781.031-.125-.937-.344zm12.625 1.469.031 1h1l-.031-1h-1zm-12.938.656-.031.125v.094l.094.844 1-.094-.094-.813v-.093l-.969-.063zm12.844 1.219-.281.938.468.124.47.22.03-.032v-.031l.282-.938v-.094l-.532-.062-.437-.125zm-11.563.656-.968.25.031.094v.031l.031.031.344.844.906-.406-.312-.781-.032-.063zm10.938 1.031-.531.782v.031l.187.125.563.5H18l.031-.031v-.032l.532-.812-.813-.563zm-10.094.594-.031.032-.813.5.032.062.031.031.031.032.594.718.75-.656-.563-.688-.03-.03zm8.938.875-.688.563h-.031V18l.063.094.437.75.063-.032.03-.03h.032l.719-.595-.625-.78zm-7.657.438-.624.75.062.062.031.032.031.03.782.47.5-.875L9 17.875l-.063-.031zm6.157.593-.906.344.093.282.156.687.032-.031h.062l.906-.375-.343-.907zm-4.5.25-.406.938.093.031h.031l.032.032.875.218.25-.968-.844-.22-.031-.03zm2.719.282-.907.031h-.031v.188l-.063.812h.126l.937-.063-.063-.968z" color="#000" font-family="sans-serif" font-weight="400" overflow="visible" transform="translate(-4.674 1032.052)" style="text-indent:0;text-align:start;line-height:normal;text-transform:none;block-progression:tb"/></g></svg>